<?xml version="1.0" encoding="iso-8859-1"?>
<!-- Uploaded to: SVG Repo, www.svgrepo.com, Generator: SVG Repo Mixer Tools -->
<svg fill="#000000" version="1.1" id="Layer_1" xmlns="http://www.w3.org/2000/svg" xmlns:xlink="http://www.w3.org/1999/xlink" 
	 viewBox="0 0 512 512" xml:space="preserve">
<g>
	<g>
		<path d="M431.574,160.574v-55.513h-86.044L256,47.299l-89.528,57.762H80.426v55.514L0,212.462v252.239h512V212.462
			L431.574,160.574z M431.574,179.119l46.239,29.832h-46.239V179.119z M431.574,224.535h42.175l-42.175,22.615V224.535z M256,65.846
			l60.785,39.215H195.216L256,65.846z M96.009,120.645h319.982v134.861l-137.928,73.958h-44.125L96.009,255.435V120.645z
			 M80.427,179.119v29.832h-0.001H34.187L80.427,179.119z M80.426,224.535v22.536l-41.989-22.536H80.426z M15.584,229.956
			l159.901,85.822L15.584,440.917V229.956z M30.39,449.117l160.093-125.291l39.538,21.221h51.958l39.554-21.209L481.61,449.117
			H30.39z M496.417,440.917L336.536,315.793l159.881-85.73V440.917z"/>
	</g>
</g>
<g>
	<g>
		<rect x="335.991" y="137.27" width="15.583" height="15.583"/>
	</g>
</g>
<g>
	<g>
		<rect x="359.886" y="137.27" width="16.622" height="15.583"/>
	</g>
</g>
<g>
	<g>
		<rect x="383.781" y="137.27" width="16.622" height="15.583"/>
	</g>
</g>
<g>
	<g>
		<rect x="119.9" y="137.27" width="88.307" height="15.583"/>
	</g>
</g>
<g>
	<g>
		<rect x="119.9" y="168.437" width="112.201" height="15.584"/>
	</g>
</g>
<g>
	<g>
		<rect x="247.685" y="168.437" width="40.517" height="15.584"/>
	</g>
</g>
<g>
	<g>
		<rect x="119.9" y="200.643" width="200.508" height="15.584"/>
	</g>
</g>
<g>
	<g>
		<rect x="335.991" y="200.643" width="64.412" height="15.584"/>
	</g>
</g>
<g>
	<g>
		<rect x="119.9" y="232.849" width="64.412" height="15.584"/>
	</g>
</g>
<g>
	<g>
		<rect x="199.895" y="232.849" width="71.684" height="15.584"/>
	</g>
</g>
<g>
	<g>
		<rect x="288.202" y="232.849" width="112.201" height="15.584"/>
	</g>
</g>
<g>
	<g>
		<rect x="176" y="265.055" width="159.991" height="15.584"/>
	</g>
</g>
<g>
	<g>
		<rect x="215.479" y="297.261" width="16.622" height="15.584"/>
	</g>
</g>
<g>
	<g>
		<rect x="247.685" y="297.261" width="48.828" height="15.584"/>
	</g>
</g>
<g>
	<g>
		<rect x="247.685" y="416.735" width="16.622" height="15.583"/>
	</g>
</g>
<g>
	<g>
		<rect x="223.79" y="416.735" width="16.622" height="15.583"/>
	</g>
</g>
<g>
	<g>
		<rect x="271.579" y="416.735" width="16.622" height="15.583"/>
	</g>
</g>
<g>
	<g>
		<rect x="167.689" y="416.735" width="40.517" height="15.583"/>
	</g>
</g>
<g>
	<g>
		<rect x="303.785" y="416.735" width="40.517" height="15.583"/>
	</g>
</g>
</svg>